<svg id="Layer_1" data-name="Layer 1" xmlns="http://www.w3.org/2000/svg" viewBox="0 0 253.79 81"><defs><style>.cls-1,.cls-3{fill:#ce0033;}.cls-1,.cls-2{stroke:#ce0033;stroke-miterlimit:10;}.cls-1{stroke-width:5px;}.cls-2{fill:none;stroke-width:8px;}</style></defs><path class="cls-1" d="M91,70V21.55h3.6l26,41.16-1.37.41V21.55h4.46V70H120L94.11,28.9l1.32-.48V70Z" transform="translate(-3.92 -5.5)"/><path class="cls-1" d="M131.82,70V21.55h25.75v4.63H136.45V43.05h20v4.69h-20V65.36h21.12V70Z" transform="translate(-3.92 -5.5)"/><path class="cls-1" d="M174.74,70,160.43,21.55h4.81l12.48,43.68h-1.83l12.76-43.68,3.61.07,12.53,43.61H203l12.59-43.68h4.64L206,70h-4L189.74,28.22H191L178.7,70Z" transform="translate(-3.92 -5.5)"/><path class="cls-1" d="M240.15,70.53a25.68,25.68,0,0,1-5.89-.65,17.86,17.86,0,0,1-5.09-2,18.82,18.82,0,0,1-4.23-3.44l1.77-4.29a19.7,19.7,0,0,0,6.21,4.35,19,19,0,0,0,7.3,1.29q4.86,0,7.55-2.28A8,8,0,0,0,250.46,57a5.94,5.94,0,0,0-1.34-4,9.39,9.39,0,0,0-3.66-2.45,54.49,54.49,0,0,0-5.24-1.74,55.59,55.59,0,0,1-5.55-1.73A19.46,19.46,0,0,1,230,44.59a10.52,10.52,0,0,1-3.18-3.81A13,13,0,0,1,225.69,35a14.32,14.32,0,0,1,1.83-7.31,12.74,12.74,0,0,1,5.15-4.93A16.44,16.44,0,0,1,240.51,21a20.3,20.3,0,0,1,5.38.71,18.43,18.43,0,0,1,4.78,2.08,17.1,17.1,0,0,1,3.92,3.33l-1.83,4.29A19.29,19.29,0,0,0,247,27.11a15.31,15.31,0,0,0-6.47-1.36q-4.75,0-7.44,2.38a8.46,8.46,0,0,0-2.69,6.67,7.08,7.08,0,0,0,1.2,4.29A8.38,8.38,0,0,0,235,41.71a36.52,36.52,0,0,0,5,1.8q3,.81,5.72,1.77a22.63,22.63,0,0,1,4.89,2.35,10.22,10.22,0,0,1,3.4,3.61,11.33,11.33,0,0,1,1.26,5.61,13.77,13.77,0,0,1-1.83,7.21,12.4,12.4,0,0,1-5.21,4.76A17.6,17.6,0,0,1,240.15,70.53Z" transform="translate(-3.92 -5.5)"/><circle class="cls-2" cx="40.5" cy="40.5" r="36.5"/><rect class="cls-3" x="34" y="22" width="12" height="12"/><rect class="cls-3" x="34" y="49" width="12" height="12"/></svg>